#!OML:ASF G:\JayActor3\Patient Classification 1\Patient 1\Session 5\male.ASF
:FULLY-SPECIFIED
:DEGREES
485
root 16.804 17.1947 -4.42868 97.6549 87.019 82.2421
lowerback 21.2838 -2.8247 -1.13735
upperback 7.04685 -3.47583 -1.36473
thorax -4.22525 -1.48757 0.0150539
lowerneck 4.7932 0.700744 2.98214
upperneck -18.805 1.64943 -0.012072
head -6.47799 0.748535 -0.634521
rclavicle 1.35174e-014 -7.95139e-016
rhumerus -27.1677 -1.45987 -89.742
rradius 29.4725
rwrist 2.34246
rhand -22.5185 -8.90942
rfingers 7.12502
rthumb 3.90808 -38.8533
lclavicle 1.35174e-014 -7.95139e-016
lhumerus -29.9954 2.35846 85.1434
lradius 31.8247
lwrist 24.7825
lhand -20.6014 10.8674
lfingers 7.12502
lthumb 5.75921 40.7692
rfemur -49.2468 3.662 11.3369
rtibia 27.1766
rfoot 13.5042 -23.7817
rtoes 26.2467
lfemur -4.51881 7.80418 -26.3095
ltibia 16.7715
lfoot -3.5326 -6.36773
ltoes -24.1863
486
root 16.6435 17.1936 -4.46024 95.1694 86.9179 79.8366
lowerback 21.3224 -2.75085 -1.34845
upperback 7.08551 -3.42095 -1.41022
thorax -4.1931 -1.46003 0.0729323
lowerneck 4.80474 0.706884 2.9699
upperneck -18.7983 1.6686 0.0529561
head -6.47844 0.753597 -0.613095
rclavicle -3.10104e-014 -1.98785e-015
rhumerus -27.2089 -1.31516 -89.8277
rradius 29.7853
rwrist 2.16518
rhand -22.4614 -8.91582
rfingers 7.12502
rthumb 3.96322 -38.8587
lclavicle -3.10104e-014 -1.98785e-015
lhumerus -29.8912 2.25967 85.2373
lradius 31.8578
lwrist 24.7732
lhand -20.5582 10.859
lfingers 7.12502
lthumb 5.80091 40.7596
rfemur -49.4775 4.0316 10.6592
rtibia 26.7752
rfoot 13.7461 -24.6296
rtoes 26.4889
lfemur -4.80474 8.51756 -26.5927
ltibia 16.4836
lfoot -3.72126 -6.8793
ltoes -23.6364
487
root 16.4857 17.1918 -4.49198 92.603 86.8409 77.3132
lowerback 21.3358 -2.67338 -1.5204
upperback 7.10858 -3.35501 -1.44681
thorax -4.16709 -1.42782 0.114977
lowerneck 4.81076 0.709843 2.95969
upperneck -18.7651 1.68165 0.116032
head -6.46952 0.755621 -0.591936
rclavicle 7.15625e-015 1.07344e-014
rhumerus -27.2704 -1.17435 -89.9015
rradius 30.0884
rwrist 1.97726
rhand -22.3967 -8.92739
rfingers 7.12502
rthumb 4.02573 -38.8691
lclavicle 7.15625e-015 1.07344e-014
lhumerus -29.8076 2.19171 85.3235
lradius 31.8901
lwrist 24.7586
lhand -20.487 10.8396
lfingers 7.12502
lthumb 5.86968 40.7383
rfemur -49.726 4.29959 10.105
rtibia 26.5071
rfoot 13.9903 -24.8776
rtoes 26.0858
lfemur -5.18165 9.18579 -26.8253
ltibia 16.2879
lfoot -3.86461 -7.49232
ltoes -22.8855
488
root 16.3307 17.1897 -4.52367 89.9718 86.7862 74.6958
lowerback 21.3324 -2.59704 -1.65372
upperback 7.12032 -3.28381 -1.47658
thorax -4.14705 -1.39349 0.140951
lowerneck 4.8177 0.711536 2.95393
upperneck -18.7216 1.69205 0.174782
head -6.45744 0.756323 -0.57264
rclavicle -4.96962e-014 6.36111e-015
rhumerus -27.3355 -1.03637 -89.9673
rradius 30.3635
rwrist 1.79081
rhand -22.3486 -8.94459
rfingers 7.12502
rthumb 4.07218 -38.8854
lclavicle -4.96962e-014 6.36111e-015
lhumerus -29.7447 2.15398 85.3979
lradius 31.9239
lwrist 24.7465
lhand -20.3995 10.8137
lfingers 7.12502
lthumb 5.95414 40.7101
rfemur -49.9834 4.4193 9.72844
rtibia 26.3958
rfoot 14.1614 -24.5434
rtoes 25.1641
lfemur -5.65102 9.78501 -27.0137
ltibia 16.2032
lfoot -3.97295 -8.15761
ltoes -21.9406
489
root 16.1783 17.1878 -4.55503 87.1732 86.76 71.8914
lowerback 21.328 -2.52546 -1.74238
upperback 7.12468 -3.21046 -1.49984
thorax -4.13698 -1.35819 0.148328
lowerneck 4.81635 0.711338 2.95315
upperneck -18.6726 1.6994 0.230682
head -6.44218 0.755502 -0.55478
rclavicle -2.38542e-014 -5.1684e-015
rhumerus -27.3951 -0.908976 -90.0278
rradius 30.6006
rwrist 1.62638
rhand -22.3028 -8.96396
rfingers 7.12502
rthumb 4.11639 -38.9039
lclavicle -2.38542e-014 -5.1684e-015
lhumerus -29.7001 2.1519 85.4548
lradius 31.9549
lwrist 24.733
lhand -20.3306 10.8015
lfingers 7.12502
lthumb 6.02061 40.6959
rfemur -50.2287 4.3725 9.57539
rtibia 26.4386
rfoot 14.1761 -23.6973
rtoes 23.8874
lfemur -6.20939 10.305 -27.1582
ltibia 16.2459
lfoot -4.05858 -8.80661
ltoes -20.8806
490
root 16.0284 17.1867 -4.58593 84.0706 86.7664 68.7712
lowerback 21.3332 -2.46028 -1.78197
upperback 7.12789 -3.13556 -1.51553
thorax -4.13566 -1.32194 0.13609
lowerneck 4.80764 0.711001 2.95216
upperneck -18.6354 1.70646 0.283655
head -6.42936 0.754947 -0.537862
rclavicle 3.81667e-014 6.55989e-014
rhumerus -27.4406 -0.795276 -90.0848
rradius 30.798
rwrist 1.49245
rhand -22.2776 -8.9895
rfingers 7.12502
rthumb 4.14074 -38.929
lclavicle 3.81667e-014 6.55989e-014
lhumerus -29.6758 2.17547 85.4943
lradius 31.9895
lwrist 24.7214
lhand -20.2703 10.7891
lfingers 7.12502
lthumb 6.07885 40.6819
rfemur -50.4429 4.19219 9.64293
rtibia 26.6064
rfoot 14.0183 -22.4202
rtoes 22.2904
lfemur -6.85371 10.7575 -27.2641
ltibia 16.4252
lfoot -4.20035 -9.36969
ltoes -20.0018
491
root 15.8806 17.1873 -4.61622 80.5497 86.809 65.2247
lowerback 21.362 -2.40421 -1.76761
upperback 7.13035 -3.06165 -1.52254
thorax -4.14978 -1.28575 0.103688
lowerneck 4.79522 0.714148 2.94873
upperneck -18.6203 1.71895 0.335088
head -6.42286 0.757483 -0.521572
rclavicle -3.49861e-014 -1.78906e-014
rhumerus -27.4695 -0.690491 -90.1417
rradius 30.9531
rwrist 1.39424
rhand -22.2773 -9.01504
rfingers 7.12502
rthumb 4.14103 -38.9545
lclavicle -3.49861e-014 -1.78906e-014
lhumerus -29.6658 2.22775 85.5142
lradius 32.0132
lwrist 24.7079
lhand -20.2542 10.7989
lfingers 7.12502
lthumb 6.09438 40.6912
rfemur -50.6076 3.95047 9.8853
rtibia 26.8537
rfoot 13.6197 -20.8288
rtoes 20.5472
lfemur -7.57905 11.1501 -27.3339
ltibia 16.7393
lfoot -4.35773 -9.80095
ltoes -19.1913
492
root 15.7347 17.1906 -4.64595 76.445 86.893 61.0885
lowerback 21.4239 -2.35811 -1.68907
upperback 7.13058 -2.98782 -1.51889
thorax -4.18611 -1.24907 0.0474765
lowerneck 4.78779 0.722562 2.94811
upperneck -18.6358 1.73978 0.380463
head -6.42682 0.764444 -0.508546
rclavicle -1.66979e-014 7.95139e-016
rhumerus -27.4881 -0.599469 -90.1989
rradius 31.0693
rwrist 1.33777
rhand -22.301 -9.0433
rfingers 7.12502
rthumb 4.11806 -38.9832
lclavicle -1.66979e-014 7.95139e-016
lhumerus -29.6704 2.29965 85.5176
lradius 32.0217
lwrist 24.6868
lhand -20.2884 10.8245
lfingers 7.12502
lthumb 6.06138 40.7178
rfemur -50.7079 3.72018 10.2523
rtibia 27.134
rfoot 12.9645 -19.0219
rtoes 18.6395
lfemur -8.37466 11.5158 -27.3652
ltibia 17.1718
lfoot -4.49662 -10.086
ltoes -18.394
493
root 15.5906 17.1978 -4.67498 71.5993 87.0127 56.1987
lowerback 21.5159 -2.32152 -1.55445
upperback 7.12839 -2.91458 -1.49901
thorax -4.24234 -1.21238 -0.0221265
lowerneck 4.78196 0.738769 2.94718
upperneck -18.6815 1.7714 0.416014
head -6.44046 0.777548 -0.499604
rclavicle -3.22031e-014 1.11319e-014
rhumerus -27.4945 -0.515475 -90.2508
rradius 31.1505
rwrist 1.3188
rhand -22.3387 -9.06981
rfingers 7.12502
rthumb 4.08168 -39.0105
lclavicle -3.22031e-014 1.11319e-014
lhumerus -29.6814 2.3991 85.5087
lradius 32.008
lwrist 24.645
lhand -20.3618 10.8784
lfingers 7.12502
lthumb 5.99056 40.7737
rfemur -50.7478 3.55509 10.6909
rtibia 27.4142
rfoot 11.9936 -17.085
rtoes 16.5773
lfemur -9.2353 11.8632 -27.3609
ltibia 17.6949
lfoot -4.56455 -10.2271
ltoes -17.4492
494
root 15.4483 17.2094 -4.7033 65.8778 87.1609 50.4079
lowerback 21.6295 -2.29256 -1.3618
upperback 7.11576 -2.83955 -1.46319
thorax -4.32281 -1.17482 -0.107346
lowerneck 4.8036 0.762847 2.94791
upperneck -18.7659 1.81569 0.445043
head -6.47103 0.796996 -0.494402
rclavicle -3.49861e-014 -2.3059e-014
rhumerus -27.499 -0.447343 -90.2949
rradius 31.2002
rwrist 1.3323
rhand -22.3816 -9.09036
rfingers 7.12502
rthumb 4.04026 -39.0318
lclavicle -3.49861e-014 -2.3059e-014
lhumerus -29.6987 2.50465 85.4947
lradius 31.9698
lwrist 24.5889
lhand -20.4663 10.9426
lfingers 7.12502
lthumb 5.88962 40.8407
rfemur -50.7429 3.47638 11.1704
rtibia 27.6854
rfoot 10.639 -15.1355
rtoes 14.4574
lfemur -10.153 12.201 -27.3217
ltibia 18.2644
lfoot -4.53124 -10.2538
ltoes -16.3277
495
root 15.3076 17.2258 -4.7308 59.2726 87.3136 43.6947
lowerback 21.7491 -2.26936 -1.13385
upperback 7.09128 -2.76453 -1.41125
thorax -4.41954 -1.13773 -0.195244
lowerneck 4.81292 0.790534 2.94486
upperneck -18.8516 1.8645 0.473638
head -6.49988 0.819128 -0.488973
rclavicle 9.93923e-015 -1.82882e-014
rhumerus -27.4975 -0.396342 -90.324
rradius 31.2242
rwrist 1.37857
rhand -22.3991 -9.11037
rfingers 7.12502
rthumb 4.02342 -39.0521
lclavicle 9.93923e-015 -1.82882e-014
lhumerus -29.7156 2.61428 85.4824
lradius 31.9102
lwrist 24.5137
lhand -20.604 11.0144
lfingers 7.12502
lthumb 5.75664 40.9162
rfemur -50.7201 3.4746 11.6636
rtibia 27.9643
rfoot 8.89702 -13.2888
rtoes 12.2886
lfemur -11.1177 12.5186 -27.263
ltibia 18.8321
lfoot -4.39409 -10.1978
ltoes -15.1132
496
root 15.1688 17.2471 -4.75743 51.9624 87.4461 36.2271
lowerback 21.8549 -2.24848 -0.891436
upperback 7.0553 -2.68931 -1.34837
thorax -4.5214 -1.1013 -0.280222
lowerneck 4.80009 0.817707 2.93655
upperneck -18.9274 1.91216 0.507324
head -6.52183 0.840964 -0.480745
rclavicle -3.97569e-016 -2.42517e-014
rhumerus -27.4855 -0.358538 -90.3382
rradius 31.2274
rwrist 1.43878
rhand -22.3999 -9.12541
rfingers 7.12502
rthumb 4.02261 -39.0672
lclavicle -3.97569e-016 -2.42517e-014
lhumerus -29.7257 2.72068 85.4719
lradius 31.8324
lwrist 24.4207
lhand -20.7238 11.0752
lfingers 7.12502
lthumb 5.64107 40.9801
rfemur -50.7144 3.53044 12.1483
rtibia 28.2849
rfoot 6.87687 -11.6419
rtoes 10.0659
lfemur -12.1175 12.7968 -27.1988
ltibia 19.3549
lfoot -4.17934 -10.0913
ltoes -13.9602
497
root 15.0321 17.273 -4.78297 44.3343 87.5371 28.385
lowerback 21.9329 -2.22681 -0.656033
upperback 7.0068 -2.61486 -1.28214
thorax -4.6216 -1.06619 -0.358305
lowerneck 4.76051 0.84101 2.92015
upperneck -18.9857 1.95444 0.553151
head -6.5338 0.860144 -0.466584
rclavicle -7.15625e-015 5.1684e-015
rhumerus -27.4613 -0.325856 -90.3422
rradius 31.2131
rwrist 1.49727
rhand -22.3712 -9.12509
rfingers 7.12502
rthumb 4.05031 -39.0663
lclavicle -7.15625e-015 5.1684e-015
lhumerus -29.7198 2.82034 85.4631
lradius 31.7375
lwrist 24.3127
lhand -20.8268 11.14
lfingers 7.12502
lthumb 5.54154 41.0475
rfemur -50.7534 3.62095 12.6103
rtibia 28.6871
rfoot 4.71033 -10.2764
rtoes 7.87388
lfemur -13.1411 13.0243 -27.1426
ltibia 19.802
lfoot -3.87057 -9.97493
ltoes -12.8898
498
root 14.8977 17.3029 -4.8073 36.9747 87.5764 20.7581
lowerback 21.9752 -2.20354 -0.447072
upperback 6.95167 -2.54419 -1.21842
thorax -4.70923 -1.03375 -0.424229
lowerneck 4.69525 0.861122 2.89609
upperneck -19.0364 1.99214 0.606833
head -6.53907 0.877397 -0.448063
rclavicle 9.93923e-015 6.75868e-015
rhumerus -27.4214 -0.288357 -90.3419
rradius 31.1913
rwrist 1.53618
rhand -22.3185 -9.11047
rfingers 7.12502
rthumb 4.10117 -39.0507
lclavicle 9.93923e-015 6.75868e-015
lhumerus -29.6998 2.90381 85.4539
lradius 31.6413
lwrist 24.2081
lhand -20.8759 11.1736
lfingers 7.12502
lthumb 5.49419 41.0824
rfemur -50.8509 3.7342 13.0334
rtibia 29.2039
rfoot 2.5569 -9.22991
rtoes 5.57548
lfemur -14.1776 13.2074 -27.1066
ltibia 20.1595
lfoot -3.50722 -9.8799
ltoes -12.1187
499
root 14.7656 17.336 -4.83023 30.3774 87.5651 13.8449
lowerback 21.9787 -2.1765 -0.274029
upperback 6.89129 -2.47702 -1.16281
thorax -4.78119 -1.00371 -0.478662
lowerneck 4.62225 0.878045 2.87113
upperneck -19.0965 2.02625 0.662485
head -6.5461 0.892998 -0.428526
rclavicle -1.03368e-014 7.95139e-016
rhumerus -27.3684 -0.244391 -90.3436
rradius 31.1672
rwrist 1.54273
rhand -22.2496 -9.07704
rfingers 7.12502
rthumb 4.16777 -39.016
lclavicle -1.03368e-014 7.95139e-016
lhumerus -29.6635 2.97131 85.44
lradius 31.5442
lwrist 24.1095
lhand -20.8677 11.2109
lfingers 7.12502
lthumb 5.50211 41.1195
rfemur -51.0092 3.87019 13.4045
rtibia 29.8542
rfoot 0.524502 -8.54187
rtoes 3.35724
lfemur -15.226 13.3592 -27.0956
ltibia 20.4361
lfoot -3.04589 -9.83148
ltoes -11.4754
